<svg xmlns="http://www.w3.org/2000/svg" viewBox="0 0 73.61 73.04"><defs><style>.a,.e{fill:#252525;}.b,.d{fill:none;stroke:#00ab9c;}.b,.d,.e{stroke-miterlimit:10;}.b,.e{stroke-width:0.75px;}.c{fill:#f2f2f2;}.d{stroke-width:3px;}.e{stroke:#f2f2f2;}</style></defs><title>logo_avecfond</title><rect class="a" x="-24.63" y="-21.99" width="241.2" height="155.91"/><ellipse class="b" cx="36.65" cy="36.58" rx="35.95" ry="35.75"/><path class="c" d="M67.19,65.36H57.34q0-1.44-8.13-11-8.34-9.81-10.48-9.81h-.29q0,8.79.46,20.77H31.52q.54-15,.54-30.61A258,258,0,0,0,30.85,7.62l8-.41q-.46,8.86-.46,34.43h.29q1.38,0,8.7-6.92t7.31-8.35H64q0,1.32-6.58,6.82a122,122,0,0,1-11.28,8.45V42q5.19,3.86,13.37,13.21Q67.18,64,67.19,65.36Z"/><path class="d" d="M51.6,61.14c-4.73,3.42-8.44,4-14.73,4A28.72,28.72,0,1,1,65.59,36.4c0,6.87-1.29,11.2-5.32,16.14"/><circle class="e" cx="66.97" cy="16.27" r="3.42"/></svg>